<svg width="80" height="53" viewBox="0 0 80 53" fill="none" xmlns="http://www.w3.org/2000/svg">
<rect x="1.5" y="1.5" width="77" height="50" stroke="#EF8A3D" stroke-width="3"/>
<path d="M6.28 25.84C6.28 23.0667 6.85333 20.6 8 18.44C9.17333 16.2533 10.8267 14.56 12.96 13.36C15.0933 12.1333 17.5467 11.52 20.32 11.52C23.84 11.52 26.8 12.4667 29.2 14.36C31.6 16.2267 33.1467 18.7733 33.84 22H25.4C24.8933 20.9333 24.1867 20.12 23.28 19.56C22.4 19 21.3733 18.72 20.2 18.72C18.3867 18.72 16.9333 19.3733 15.84 20.68C14.7733 21.96 14.24 23.68 14.24 25.84C14.24 28.0267 14.7733 29.7733 15.84 31.08C16.9333 32.36 18.3867 33 20.2 33C21.3733 33 22.4 32.72 23.28 32.16C24.1867 31.6 24.8933 30.7867 25.4 29.72H33.84C33.1467 32.9467 31.6 35.5067 29.2 37.4C26.8 39.2667 23.84 40.2 20.32 40.2C17.5467 40.2 15.0933 39.6 12.96 38.4C10.8267 37.1733 9.17333 35.48 8 33.32C6.85333 31.1333 6.28 28.64 6.28 25.84ZM64.9925 11.8L55.2725 40H45.2325L35.4725 11.8H43.8725L50.2725 32.16L56.6325 11.8H64.9925ZM71.2353 40.32C69.8486 40.32 68.7286 39.9467 67.8753 39.2C67.0486 38.4267 66.6353 37.4533 66.6353 36.28C66.6353 35.1067 67.0486 34.1333 67.8753 33.36C68.7286 32.5867 69.8486 32.2 71.2353 32.2C72.5953 32.2 73.6886 32.5867 74.5153 33.36C75.3686 34.1333 75.7953 35.1067 75.7953 36.28C75.7953 37.4267 75.3686 38.3867 74.5153 39.16C73.6886 39.9333 72.5953 40.32 71.2353 40.32Z" fill="#EF8A3D"/>
</svg>
